<svg width="195" height="180" viewBox="0 0 195 180" fill="none" xmlns="http://www.w3.org/2000/svg">
<g filter="url(#filter0_dd_1_5)">
<rect x="4" width="187" height="172" rx="20" fill="black" fill-opacity="0.91"/>
<g filter="url(#filter1_di_1_5)">
<path d="M84.6785 118.76L71.3345 77.384L58.7585 116.168C58.2465 117.896 57.2865 118.76 55.8785 118.76H52.4225L34.4705 64.328C32.8065 59.144 30.8865 56.232 28.7105 55.592C28.1345 55.4 27.5265 55.272 26.8865 55.208C26.3105 55.144 25.5425 55.08 24.5825 55.016C24.5825 53.288 24.7105 51.976 24.9665 51.08C25.1585 50.44 25.5105 50.12 26.0225 50.12H46.7585C47.3985 50.12 47.7185 50.44 47.7185 51.08C47.7185 51.336 47.6225 51.848 47.4305 52.616C47.3025 53.384 47.1105 53.992 46.8545 54.44C45.1905 54.504 44.0065 54.792 43.3025 55.304C42.6625 55.752 42.3425 56.488 42.3425 57.512C42.3425 58.152 42.4705 58.952 42.7265 59.912C42.9825 60.808 43.3025 61.864 43.6865 63.08L56.5505 102.92C56.6785 103.176 56.8705 103.304 57.1265 103.304C57.3825 103.304 57.5425 103.176 57.6065 102.92L68.6465 69.224L67.1105 64.328C66.2785 61.704 65.3825 59.688 64.4225 58.28C63.4625 56.872 62.4385 55.976 61.3505 55.592C60.7745 55.4 60.1665 55.272 59.5265 55.208C58.9505 55.144 58.1825 55.08 57.2225 55.016C57.2225 53.288 57.3505 51.976 57.6065 51.08C57.7985 50.44 58.1505 50.12 58.6625 50.12H79.3985C79.7825 50.12 79.9425 50.312 79.8785 50.696C79.8785 50.888 79.8785 51.016 79.8785 51.08C79.8785 51.144 79.8785 51.208 79.8785 51.272C79.8785 51.656 79.8465 52.2 79.7825 52.904C79.7825 53.544 79.6865 54.056 79.4945 54.44C77.8305 54.504 76.6785 54.792 76.0385 55.304C75.3985 55.752 75.0785 56.456 75.0785 57.416C75.0785 58.056 75.1745 58.856 75.3665 59.816C75.6225 60.776 75.9425 61.864 76.3265 63.08L88.8065 102.92C88.9345 103.176 89.1265 103.304 89.3825 103.304C89.6385 103.304 89.7985 103.176 89.8625 102.92L101.479 62.312C101.799 61.288 102.023 60.424 102.151 59.72C102.343 58.952 102.439 58.312 102.439 57.8C102.439 56.712 102.055 56.008 101.287 55.688C100.519 55.304 99.2065 55.08 97.3505 55.016C97.3505 54.184 97.4145 53.416 97.5425 52.712C97.7345 51.944 97.8625 51.4 97.9265 51.08C98.1185 50.44 98.4705 50.12 98.9825 50.12H115.303C115.943 50.12 116.263 50.44 116.263 51.08C116.263 51.336 116.167 51.848 115.975 52.616C115.847 53.384 115.655 53.992 115.399 54.44C113.351 54.696 111.783 55.272 110.695 56.168C109.607 57.064 108.615 59.016 107.719 62.024L91.0145 116.168C90.5025 117.896 89.5425 118.76 88.1345 118.76H84.6785ZM141.373 118.76C136.957 118.76 132.733 117.992 128.701 116.456C124.669 114.856 121.053 112.584 117.853 109.64C114.717 106.632 112.221 103.016 110.365 98.792C108.509 94.568 107.581 89.832 107.581 84.584C107.581 79.4 108.445 74.632 110.173 70.28C111.901 65.864 114.365 62.056 117.565 58.856C120.829 55.592 124.605 53.096 128.893 51.368C133.245 49.576 138.013 48.68 143.197 48.68C146.461 48.68 149.469 49.032 152.221 49.736C155.037 50.44 157.821 51.496 160.573 52.904H163.357C164.125 52.904 164.541 53.256 164.605 53.96L165.757 69.8C165.245 69.992 164.637 70.152 163.933 70.28C163.293 70.344 162.813 70.376 162.493 70.376C161.853 70.376 161.405 70.024 161.149 69.32L159.517 64.424C158.813 62.248 157.501 60.424 155.581 58.952C153.661 57.416 151.421 56.264 148.861 55.496C146.365 54.728 143.805 54.344 141.181 54.344C136.445 54.344 132.253 55.496 128.605 57.8C124.957 60.104 122.109 63.4 120.061 67.688C118.077 71.912 117.117 76.936 117.181 82.76C117.245 88.904 118.461 94.184 120.829 98.6C123.197 102.952 126.301 106.312 130.141 108.68C134.045 110.984 138.301 112.136 142.909 112.136C146.493 112.136 150.205 111.464 154.045 110.12C157.885 108.712 161.469 106.504 164.797 103.496L168.061 108.2C163.965 111.976 159.613 114.696 155.005 116.36C150.397 117.96 145.853 118.76 141.373 118.76Z" fill="#ECEDF1"/>
<path d="M24.1025 137H171.901V141.8H24.1025V137Z" fill="#ECEDF1"/>
</g>
</g>
<defs>
<filter id="filter0_dd_1_5" x="0" y="0" width="195" height="180" filterUnits="userSpaceOnUse" color-interpolation-filters="sRGB">
<feFlood flood-opacity="0" result="BackgroundImageFix"/>
<feColorMatrix in="SourceAlpha" type="matrix" values="0 0 0 0 0 0 0 0 0 0 0 0 0 0 0 0 0 0 127 0" result="hardAlpha"/>
<feOffset dy="4"/>
<feGaussianBlur stdDeviation="2"/>
<feComposite in2="hardAlpha" operator="out"/>
<feColorMatrix type="matrix" values="0 0 0 0 0 0 0 0 0 0 0 0 0 0 0 0 0 0 0.25 0"/>
<feBlend mode="normal" in2="BackgroundImageFix" result="effect1_dropShadow_1_5"/>
<feColorMatrix in="SourceAlpha" type="matrix" values="0 0 0 0 0 0 0 0 0 0 0 0 0 0 0 0 0 0 127 0" result="hardAlpha"/>
<feOffset dy="4"/>
<feGaussianBlur stdDeviation="2"/>
<feComposite in2="hardAlpha" operator="out"/>
<feColorMatrix type="matrix" values="0 0 0 0 0 0 0 0 0 0 0 0 0 0 0 0 0 0 0.25 0"/>
<feBlend mode="normal" in2="effect1_dropShadow_1_5" result="effect2_dropShadow_1_5"/>
<feBlend mode="normal" in="SourceGraphic" in2="effect2_dropShadow_1_5" result="shape"/>
</filter>
<filter id="filter1_di_1_5" x="20.5825" y="48.68" width="151.479" height="78.08" filterUnits="userSpaceOnUse" color-interpolation-filters="sRGB">
<feFlood flood-opacity="0" result="BackgroundImageFix"/>
<feColorMatrix in="SourceAlpha" type="matrix" values="0 0 0 0 0 0 0 0 0 0 0 0 0 0 0 0 0 0 127 0" result="hardAlpha"/>
<feOffset dy="4"/>
<feGaussianBlur stdDeviation="2"/>
<feComposite in2="hardAlpha" operator="out"/>
<feColorMatrix type="matrix" values="0 0 0 0 0 0 0 0 0 0 0 0 0 0 0 0 0 0 0.25 0"/>
<feBlend mode="normal" in2="BackgroundImageFix" result="effect1_dropShadow_1_5"/>
<feBlend mode="normal" in="SourceGraphic" in2="effect1_dropShadow_1_5" result="shape"/>
<feColorMatrix in="SourceAlpha" type="matrix" values="0 0 0 0 0 0 0 0 0 0 0 0 0 0 0 0 0 0 127 0" result="hardAlpha"/>
<feOffset dy="4"/>
<feGaussianBlur stdDeviation="2"/>
<feComposite in2="hardAlpha" operator="arithmetic" k2="-1" k3="1"/>
<feColorMatrix type="matrix" values="0 0 0 0 0 0 0 0 0 0 0 0 0 0 0 0 0 0 0.25 0"/>
<feBlend mode="normal" in2="shape" result="effect2_innerShadow_1_5"/>
</filter>
</defs>
</svg>
